<svg width="37" height="31" viewBox="0 0 37 31" fill="none" xmlns="http://www.w3.org/2000/svg">
<mask id="mask0_2501_430" style="mask-type:luminance" maskUnits="userSpaceOnUse" x="6" y="3" width="25" height="25">
<path d="M13.1866 4.04555C11.9161 4.10552 11.0484 4.30903 10.2901 4.60615C9.50515 4.91216 8.83976 5.32223 8.17784 5.98688C7.51515 6.65191 7.10816 7.31848 6.80447 8.10423C6.51045 8.86442 6.31121 9.73257 6.25509 11.0038C6.19941 12.2774 6.18663 12.6836 6.19284 15.926C6.19902 19.168 6.21333 19.575 6.27406 20.849C6.33478 22.1191 6.53753 22.9864 6.83465 23.7451C7.14104 24.53 7.55071 25.1951 8.21574 25.8574C8.88038 26.5197 9.54732 26.9263 10.3334 27.2304C11.0929 27.524 11.9614 27.7241 13.2322 27.7798C14.5058 27.8359 14.9124 27.8483 18.154 27.8421C21.3971 27.8359 21.8037 27.8215 23.0772 27.7612C24.3477 27.7005 25.2146 27.497 25.9737 27.2006C26.7586 26.8935 27.4241 26.4845 28.0859 25.8195C28.7479 25.1548 29.1549 24.4879 29.4586 23.7018C29.7526 22.9423 29.9526 22.0738 30.0079 20.8037C30.0636 19.5294 30.0768 19.1224 30.0706 15.8804C30.0644 12.638 30.0497 12.2318 29.9894 10.9586C29.929 9.68734 29.7255 8.82036 29.4288 8.06131C29.122 7.27636 28.7127 6.61171 28.0481 5.949C27.3834 5.28706 26.7165 4.8793 25.9304 4.57637C25.1706 4.28235 24.3024 4.08195 23.0315 4.02702C21.758 3.97052 21.3514 3.95815 18.1087 3.96434C14.8667 3.97054 14.4602 3.98447 13.1866 4.04558M13.3259 25.6307C12.1618 25.58 11.5297 25.3866 11.1083 25.2245C10.5505 25.0086 10.1524 24.7498 9.73342 24.3339C9.31523 23.9165 9.05564 23.5195 8.83783 22.9628C8.67418 22.5415 8.47728 21.9102 8.42274 20.746C8.36351 19.4876 8.35 19.11 8.34417 15.9218C8.33801 12.7343 8.34959 12.3567 8.40454 11.0971C8.45445 9.93377 8.64905 9.30086 8.81075 8.87994C9.02663 8.32128 9.28464 7.92398 9.7013 7.50499C10.1187 7.08601 10.5157 6.82719 11.0728 6.6094C11.4937 6.44496 12.125 6.24959 13.2887 6.19428C14.548 6.1347 14.9252 6.12192 18.1126 6.11574C21.3007 6.10953 21.6783 6.12075 22.938 6.17608C24.1013 6.22676 24.7342 6.41943 25.1547 6.58229C25.7129 6.79817 26.111 7.05544 26.5296 7.47287C26.9482 7.89031 27.2078 8.28648 27.4256 8.84472C27.59 9.26447 27.7854 9.89663 27.8403 11.06C27.9003 12.3192 27.9138 12.6968 27.9196 15.8842C27.9258 19.0724 27.9142 19.45 27.8589 20.7089C27.8082 21.873 27.6152 22.5055 27.4527 22.9272C27.2368 23.4847 26.9788 23.8828 26.5617 24.3018C26.1447 24.7192 25.7478 24.9796 25.1903 25.1974C24.7702 25.3614 24.138 25.5572 22.9751 25.6125C21.7158 25.6717 21.3386 25.6852 18.1501 25.691C14.9627 25.6973 14.5855 25.6852 13.3259 25.6307ZM23.0598 9.52061C23.0614 10.3114 23.7043 10.9516 24.4951 10.9501C25.2862 10.9485 25.9265 10.3059 25.9253 9.51517C25.9238 8.72441 25.2808 8.08376 24.4897 8.08531C23.6985 8.08684 23.0583 8.72983 23.0598 9.52059M12.0009 15.9148C12.0074 19.3011 14.7577 22.0401 18.1431 22.0335C21.529 22.027 24.2695 19.2775 24.263 15.8912C24.2564 12.5061 21.5058 9.76546 18.1195 9.77202C14.734 9.77862 11.9943 12.5293 12.0009 15.9148ZM14.1514 15.9105C14.1476 13.7127 15.9264 11.9273 18.1238 11.9234C20.3216 11.9192 22.1073 13.6972 22.1116 15.8954C22.1159 18.0936 20.337 19.8787 18.1389 19.8829C15.9415 19.8872 14.1557 18.1087 14.1514 15.9105Z" fill="white"/>
</mask>
<g mask="url(#mask0_2501_430)">
<rect x="5.1001" y="2.90527" width="26.0432" height="26.0432" fill="white"/>
</g>
</svg>
