<svg width="37" height="31" viewBox="0 0 37 31" fill="none" xmlns="http://www.w3.org/2000/svg">
<path d="M13.6794 25.6519C22.736 25.6519 27.6896 18.1485 27.6896 11.6416C27.6896 11.4285 27.6896 11.2164 27.6752 11.0052C28.6389 10.3081 29.4708 9.44506 30.1318 8.45637C29.2332 8.85457 28.2798 9.11567 27.3037 9.23107C28.3314 8.61588 29.101 7.64754 29.4685 6.50754C28.5019 7.08106 27.4444 7.48531 26.3418 7.70276C25.4107 6.71271 24.1104 6.15063 22.7515 6.15063C20.0476 6.15063 17.8228 8.37551 17.8228 11.0793C17.8228 11.4544 17.8656 11.8283 17.9504 12.1936C13.9933 11.9953 10.3013 10.1236 7.80223 7.04899C6.50266 9.28615 7.17509 12.1854 9.3267 13.6221C8.54318 13.5989 7.77649 13.3875 7.09184 13.0058V13.0682C7.09249 15.4032 8.75341 17.4327 11.0422 17.8951C10.3174 18.0927 9.55662 18.1216 8.8189 17.9795C9.46235 19.9804 11.3179 21.3596 13.4192 21.3991C11.6759 22.7691 9.52123 23.5133 7.30399 23.5111C6.91221 23.5103 6.5208 23.4866 6.13184 23.44C8.38343 24.8849 11.004 25.6516 13.6794 25.648" fill="white"/>
</svg>
