<svg width="37" height="31" viewBox="0 0 37 31" fill="none" xmlns="http://www.w3.org/2000/svg">
<path d="M29.6302 9.92097C29.3542 8.88831 28.5411 8.07517 27.5085 7.79922C25.6367 7.29761 18.1317 7.29761 18.1317 7.29761C18.1317 7.29761 10.6268 7.29761 8.75496 7.79922C7.72254 8.07517 6.90921 8.88831 6.63321 9.92097C6.13184 11.7926 6.13184 15.6977 6.13184 15.6977C6.13184 15.6977 6.13184 19.6027 6.63321 21.4742C6.90921 22.5068 7.72254 23.3201 8.75496 23.5961C10.6268 24.0975 18.1317 24.0975 18.1317 24.0975C18.1317 24.0975 25.6367 24.0975 27.5085 23.5961C28.5411 23.3201 29.3542 22.5068 29.6302 21.4742C30.1318 19.6027 30.1318 15.6977 30.1318 15.6977C30.1318 15.6977 30.1318 11.7926 29.6302 9.92097Z" fill="white"/>
<path d="M15.7314 19.298L21.9667 15.6979L15.7314 12.0979V19.298Z" fill="black"/>
</svg>
